PathFileType	4	(X/Y/Z)	./resultDataOpenSim/trcMotMarkerGrf/sub09/qtm-04-09.trc
DataRate	CameraRate	NumFrames	NumMarkers	Units	OrigDataRate	OrigDataStartFrame	OrigNumFrames
250.000000	250.000000	12	24	m	250.000000	382	508
Frame#	Time	L.Toe.Tip			R.Toe.Tip			L.Ankle.Lat			R.Ankle.Lat			L.Ankle.Med			R.Ankle.Med			L.Heel			R.Heel			L.Knee.Lat			R.Knee.Lat			L.Knee.Med			R.Knee.Med			L.Thigh.Upper			R.Thigh.Upper			L.ASIS			R.ASIS			V.Sacral			L.Acromium			R.Acromium			C7			L.Elbow			R.Elbow			L.Wrist.Lat			R.Wrist.Lat
		X1	Y1	Z1	X2	Y2	Z2	X3	Y3	Z3	X4	Y4	Z4	X5	Y5	Z5	X6	Y6	Z6	X7	Y7	Z7	X8	Y8	Z8	X9	Y9	Z9	X10	Y10	Z10	X11	Y11	Z11	X12	Y12	Z12	X13	Y13	Z13	X14	Y14	Z14	X15	Y15	Z15	X16	Y16	Z16	X17	Y17	Z17	X18	Y18	Z18	X19	Y19	Z19	X20	Y20	Z20	X21	Y21	Z21	X22	Y22	Z22	X23	Y23	Z23	X24	Y24	Z24

382	1.524	0.91433793	0.14710001	-0.021663146	1.1163541	0.039771466	0.11090007	0.86557536	0.29279546	-0.064733439	0.97009751	0.057277185	0.14851127	0.88062142	0.28218568	0.031798364	0.97893635	0.095766153	0.056487373	0.78960967	0.32593722	-0.025641211	0.89865762	0.039932976	0.10085925	1.2036587	0.51123751	-0.064300993	1.0906063	0.4993502	0.20643554	1.2201742	0.50386856	0.068354862	1.0670858	0.48952818	0.07984552	1.0331346	0.88564578	-0.099252974	1.0161786	0.90267007	0.27091352	1.1019332	0.97350891	-0.039832565	1.1035211	0.98708198	0.19711203	0.93674029	1.036933	0.072752935	1.0889093	1.4318723	-0.10144505	1.061144	1.4491974	0.22943322	1.0025063	1.4862766	0.059461594	0.98707069	1.0768667	-0.13711157	0.94902709	1.0905166	0.31532568	1.1094094	0.85052969	-0.18107777	1.1735584	0.92650557	0.30125641
383	1.528	0.93283736	0.14412531	-0.021653367	1.1164252	0.039738224	0.11087774	0.87895932	0.28774114	-0.064038149	0.97026502	0.057537949	0.14848263	0.8959521	0.27730618	0.032228166	0.97921067	0.096030568	0.056443446	0.80197522	0.3185152	-0.024733646	0.89882601	0.040342186	0.100859	1.2125502	0.51380291	-0.064337577	1.0919211	0.49936781	0.20661815	1.2239213	0.50573069	0.066865421	1.0683164	0.48957854	0.080104443	1.0380746	0.88682757	-0.09959243	1.0208607	0.90319231	0.27096523	1.1073499	0.97469896	-0.039835888	1.1086302	0.98770296	0.19719595	0.94187032	1.0376177	0.072813262	1.0936347	1.4325872	-0.10171805	1.0662025	1.4501931	0.22928133	1.0074644	1.4871096	0.059384905	0.99049893	1.0781009	-0.13729402	0.9548183	1.09108	0.31565021	1.1106419	0.85086713	-0.18218098	1.1811503	0.92950393	0.3000065
384	1.532	0.95135562	0.14105659	-0.021575384	1.1164803	0.039698373	0.11086031	0.89250752	0.28246103	-0.063372507	0.97035836	0.057818703	0.1484601	0.91186258	0.2722202	0.032634831	0.97952096	0.096342702	0.056398276	0.8145341	0.31076863	-0.023831042	0.89906804	0.040740182	0.10090939	1.2213011	0.51625643	-0.064388108	1.0932076	0.49943107	0.20681842	1.2269524	0.5075048	0.065195185	1.0697818	0.48958397	0.080666569	1.0433557	0.887931	-0.099790873	1.0253703	0.90361504	0.27117034	1.1129009	0.97582057	-0.039887464	1.113724	0.98829708	0.19728411	0.94689144	1.0382152	0.072829908	1.0983615	1.4332313	-0.10195913	1.071285	1.4511442	0.22916303	1.0124282	1.4879083	0.059298348	0.99391831	1.0792806	-0.1375008	0.96059817	1.0916074	0.31595447	1.1119261	0.85120296	-0.18327646	1.1886153	0.93242438	0.29874957
385	1.536	0.96988069	0.13791791	-0.021423051	1.1165279	0.039667148	0.11084375	0.90624404	0.27697312	-0.062746331	0.97036864	0.058134338	0.14844662	0.92777043	0.2669863	0.033059584	0.97987857	0.09671768	0.056359205	0.82733181	0.30270075	-0.022938474	0.89937066	0.041108138	0.10096107	1.22992	0.51857127	-0.064455282	1.0945242	0.49948204	0.20708367	1.2315715	0.50953664	0.063886449	1.0714135	0.48956695	0.081457451	1.0490539	0.88895191	-0.099884606	1.0296175	0.90390098	0.2716503	1.1185456	0.9768725	-0.039965886	1.1188036	0.98886683	0.1973679	0.95190757	1.0387664	0.072834999	1.1030957	1.4338077	-0.1021721	1.0763886	1.4520466	0.22907462	1.0173962	1.4886567	0.059197847	0.99733458	1.0803914	-0.13775777	0.96637176	1.0920943	0.31623757	1.1132659	0.8515399	-0.18436494	1.1959388	0.93525701	0.29747882
386	1.54	0.98845148	0.13473766	-0.02120462	1.1166063	0.039669551	0.11081511	0.92018079	0.27129549	-0.062161517	0.97038339	0.058481709	0.14840536	0.94320282	0.26166462	0.033536438	0.98025166	0.097142902	0.056313815	0.84042183	0.29434071	-0.02208043	0.89965468	0.041470715	0.10092271	1.2383981	0.52073536	-0.064548776	1.0959503	0.4995043	0.20749601	1.2385907	0.51184525	0.063144277	1.0729977	0.48960781	0.082210658	1.0550098	0.88988794	-0.099937421	1.0337159	0.90412516	0.27224856	1.1241344	0.97786175	-0.040017964	1.1238708	0.98941182	0.19744301	0.95695335	1.0392917	0.072829336	1.1078433	1.4343295	-0.10237108	1.0815038	1.4529036	0.22898016	1.0223661	1.4893457	0.059086089	1.0007424	1.0814369	-0.13807033	0.97213324	1.0925346	0.31649356	1.1146631	0.85187723	-0.18544269	1.2031678	0.93801693	0.29620837
387	1.544	1.0071468	0.13150773	-0.020948585	1.1167631	0.039704908	0.11075694	0.93430747	0.26543658	-0.061604108	0.97051644	0.058844173	0.14828705	0.95818356	0.25626814	0.034058591	0.98054569	0.097591217	0.05623571	0.85380611	0.28574506	-0.021249908	0.89986568	0.041898696	0.10077043	1.2466765	0.52277592	-0.064685225	1.0974833	0.49954342	0.20806655	1.2469424	0.51416337	0.062734374	1.0744743	0.48971059	0.082726307	1.0609472	0.89074089	-0.10002113	1.0379613	0.90445763	0.27260282	1.1295395	0.97879371	-0.040003667	1.1289284	0.98993355	0.19751247	0.96200409	1.0397979	0.072795676	1.1126047	1.4348063	-0.1025647	1.0866352	1.4537427	0.2288227	1.02734	1.489985	0.058967448	1.0041326	1.0824332	-0.13842111	0.97787688	1.0929308	0.31672115	1.1161164	0.85220987	-0.18651001	1.2103468	0.94071925	0.29495211
388	1.548	1.0260075	0.12820662	-0.020690986	1.1170119	0.03973266	0.11065859	0.94860068	0.25939196	-0.061044754	0.97075801	0.059212882	0.14809712	0.97298901	0.2507805	0.034601345	0.98071658	0.098046558	0.05610764	0.86745764	0.2769553	-0.020411355	0.90002269	0.042434611	0.10056472	1.2546835	0.52473342	-0.06487581	1.0989565	0.49961779	0.20863243	1.255433	0.51629872	0.062379226	1.075957	0.4898162	0.083019545	1.0667137	0.89151956	-0.10018879	1.0425425	0.90499549	0.27250328	1.1347596	0.97966619	-0.039926635	1.133979	0.99043924	0.19758329	0.96698767	1.0402719	0.072726417	1.1173762	1.4352406	-0.10275735	1.0918049	1.454602	0.22856185	1.0323207	1.4905943	0.058842822	1.0075054	1.0833902	-0.13879072	0.98360686	1.0932911	0.31692681	1.1176229	0.85253366	-0.18757111	1.2174848	0.94336527	0.2937133
389	1.552	1.0449794	0.1248482	-0.020450775	1.1172879	0.03970471	0.1105369	0.96304737	0.25315922	-0.060460541	0.97099756	0.059592737	0.14788644	0.98783749	0.24518567	0.035150221	0.98084647	0.098506648	0.055948855	0.88138268	0.26798345	-0.019537948	0.90016157	0.043054466	0.10035935	1.2624211	0.52661096	-0.065107827	1.1001745	0.49970543	0.20897605	1.2636289	0.51823749	0.061975954	1.0775136	0.4899143	0.083200432	1.0723439	0.89223296	-0.10043262	1.0473923	0.90568193	0.27205397	1.1398829	0.98047358	-0.039818082	1.1390223	0.99093796	0.19766084	0.9718002	1.0406668	0.072636834	1.1221548	1.4356315	-0.10295362	1.097013	1.455478	0.2282198	1.0373061	1.4911748	0.058712444	1.0108826	1.0843198	-0.13914085	0.98933028	1.09362	0.31711928	1.1191802	0.85284893	-0.18862872	1.2245724	0.9459519	0.29249209
390	1.556	1.0639613	0.12147763	-0.020216855	1.1174783	0.039620832	0.11043907	0.97765938	0.24675323	-0.05985324	0.97117015	0.059990461	0.14768705	1.0028241	0.2394772	0.035703774	0.98104117	0.098970693	0.055794647	0.89560543	0.25886218	-0.018636651	0.90028814	0.043712354	0.10014986	1.2699803	0.52836437	-0.065348928	1.1011603	0.49978941	0.20907953	1.2715435	0.52002986	0.061533664	1.079085	0.49006452	0.083339844	1.0779139	0.89288281	-0.10068608	1.0523359	0.90640472	0.27148669	1.1450065	0.98121018	-0.039710434	1.1440535	0.99143114	0.19774482	0.97636067	1.0409208	0.07253942	1.1269412	1.4359792	-0.10315653	1.1022166	1.4563045	0.2278795	1.0422923	1.4917033	0.058580711	1.014303	1.0852494	-0.13939512	0.99504706	1.093915	0.31730028	1.1207884	0.85315841	-0.18968197	1.2316032	0.94847966	0.29129163
391	1.56	1.0829103	0.11813111	-0.019969441	1.1175222	0.039543273	0.11041092	0.99246728	0.24020195	-0.059242372	0.97129152	0.06040463	0.14750076	1.017965	0.23365912	0.036264864	0.98131535	0.099430796	0.055654434	0.91012211	0.24965767	-0.017736037	0.90037924	0.044391709	0.099887163	1.2774578	0.52994768	-0.065574742	1.1021067	0.49987187	0.20909738	1.2792615	0.52170541	0.061080882	1.0805418	0.49034566	0.083450773	1.0834573	0.89346463	-0.10089024	1.0572459	0.90709236	0.27097459	1.150191	0.98187207	-0.039623075	1.1490661	0.99190958	0.19783133	0.98072799	1.041021	0.072418469	1.1317388	1.4362845	-0.10336379	1.1073752	1.4570132	0.22760925	1.0472824	1.4921645	0.058453598	1.0178056	1.0862111	-0.13948097	1.0007525	1.0941694	0.31746288	1.1224517	0.85346313	-0.19072927	1.238576	0.95095029	0.29011561
392	1.564	1.1018724	0.11481613	-0.019711427	1.1174583	0.039541383	0.11046631	1.0074975	0.233533	-0.058645736	0.97140206	0.060826967	0.14732869	1.0332528	0.22774457	0.036829806	0.98161621	0.099870196	0.055521304	0.92490881	0.24041364	-0.016850068	0.90040031	0.045104362	0.099517762	1.284886	0.53134803	-0.065781648	1.1030962	0.49997755	0.20909152	1.2868052	0.5232597	0.060629684	1.0817739	0.49079542	0.083520225	1.0889889	0.89397053	-0.10104505	1.0620648	0.90771734	0.27059206	1.1554462	0.98246201	-0.039559736	1.1540603	0.99236219	0.19791974	0.98514667	1.0410426	0.072248256	1.1365498	1.4365482	-0.10357098	1.1124914	1.457597	0.2274099	1.0522866	1.4925734	0.058331006	1.0214104	1.0872101	-0.1394096	1.0064458	1.0943804	0.3176015	1.1241744	0.85376062	-0.19177206	1.2454882	0.95336218	0.28896346
393	1.568	1.1209083	0.11152881	-0.019464893	1.1173883	0.039626939	0.11057951	1.0227468	0.22677154	-0.058062689	0.9715277	0.061254246	0.1471824	1.0486892	0.2217528	0.037385505	0.98191473	0.10027934	0.055421444	0.93995488	0.23112294	-0.015973697	0.90034796	0.045857461	0.099055403	1.29224	0.53256911	-0.06597833	1.1040334	0.50012639	0.20898529	1.2941626	0.5246783	0.060179497	1.0828487	0.49135262	0.083564295	1.0945105	0.89439495	-0.10118072	1.0667813	0.90827346	0.27033613	1.1607511	0.98298941	-0.039513115	1.159049	0.99278266	0.19801468	0.98986036	1.0410886	0.072027953	1.1413728	1.4367719	-0.10377689	1.1175893	1.4580939	0.22724601	1.0573139	1.4929573	0.058205776	1.0250831	1.0881995	-0.13930704	1.0121314	1.09455	0.3177189	1.1259585	0.85404756	-0.19281283	1.2523387	0.95571129	0.28783215
